<?xml version="1.0" encoding="utf-8"?>
<!-- Generator: Adobe Illustrator 25.4.1, SVG Export Plug-In . SVG Version: 6.00 Build 0)  -->
<svg version="1.1" id="Layer_1" xmlns="http://www.w3.org/2000/svg" xmlns:xlink="http://www.w3.org/1999/xlink" x="0px" y="0px"
	 viewBox="0 0 1000 1000" style="enable-background:new 0 0 1000 1000;" xml:space="preserve">
<style type="text/css">
	.st0{fill:#F35D49;}
	.st1{fill:#C84800;}
	.st2{fill:#5ED1CA;}
	.st3{fill:#6BDD6A;}
	.st4{fill:#006971;}
	.st5{fill:#FFD881;}
	.st6{fill:#287FFF;}
</style>
<rect x="183.07" y="714.46" width="50.88" height="50.88"/>
<rect x="312.82" y="714.46" width="50.88" height="50.88"/>
<rect x="183.07" y="839.84" width="50.88" height="50.88"/>
<rect x="312.82" y="839.84" width="50.88" height="50.88"/>
<rect x="579.94" y="332.86" width="50.88" height="50.88"/>
<rect x="577.39" y="460.06" class="st0" width="50.88" height="50.88"/>
<rect x="447.65" y="587.26" width="50.88" height="50.88"/>
<rect x="577.39" y="587.26" width="50.88" height="50.88"/>
<rect x="447.65" y="714.46" class="st1" width="50.88" height="50.88"/>
<rect x="577.39" y="714.46" width="50.88" height="50.88"/>
<rect x="447.65" y="839.84" width="50.88" height="50.88"/>
<rect x="577.39" y="839.84" width="50.88" height="50.88"/>
<rect x="840.7" y="81" class="st2" width="50.88" height="50.88"/>
<rect x="712.23" y="208.2" width="50.88" height="50.88"/>
<rect x="840.7" y="208.2" width="50.88" height="50.88"/>
<rect x="712.23" y="335.4" width="50.88" height="50.88"/>
<rect x="840.7" y="335.4" width="50.88" height="50.88"/>
<rect x="709.68" y="462.6" width="50.88" height="50.88"/>
<rect x="840.7" y="462.6" class="st3" width="50.88" height="50.88"/>
<rect x="709.68" y="589.8" class="st4" width="50.88" height="50.88"/>
<rect x="840.7" y="589.8" width="50.88" height="50.88"/>
<rect x="709.68" y="717" width="50.88" height="50.88"/>
<rect x="840.7" y="717" width="50.88" height="50.88"/>
<rect x="709.68" y="839.84" class="st5" width="50.88" height="50.88"/>
<rect x="840.7" y="839.84" width="50.88" height="50.88"/>
<rect x="310.27" y="589.8" width="50.88" height="50.88"/>
<rect x="450.19" y="460.06" width="50.88" height="50.88"/>
<rect x="63.6" y="841.27" class="st6" width="50.88" height="50.88"/>
</svg>
