<svg id="Layer_1" data-name="Layer 1" xmlns="http://www.w3.org/2000/svg" viewBox="0 0 463.38 130.93"><defs><style>.cls-1{font-size:33.68px;font-family:CanelaText-Medium, Canela Text;font-weight:500;}.cls-2{letter-spacing:0.01em;}.cls-3{letter-spacing:-0.02em;}.cls-4{letter-spacing:-0.01em;}.cls-5{letter-spacing:-0.01em;}.cls-6{letter-spacing:-0.03em;}.cls-7{letter-spacing:0em;}.cls-8{letter-spacing:0em;}.cls-9{letter-spacing:-0.02em;}.cls-10{letter-spacing:0em;}.cls-11{letter-spacing:-0.01em;}.cls-12{letter-spacing:-0.01em;}.cls-13{letter-spacing:0.01em;}.cls-14{letter-spacing:0em;}.cls-15{fill:#f35d49;}.cls-16{fill:#c84800;}.cls-17{fill:#5ed1ca;}.cls-18{fill:#6bdd6a;}.cls-19{fill:#006971;}.cls-20{fill:#ffd881;}.cls-21{fill:#287fff;}.cls-22{fill:#fff;}.cls-23{stroke:#000;stroke-miterlimit:10;}</style></defs><text class="cls-1" transform="translate(129.28 40.9)"><tspan class="cls-2">Q</tspan><tspan x="28.09" y="0">u</tspan><tspan class="cls-3" x="48.2" y="0">a</tspan><tspan x="66.83" y="0">nt</tspan><tspan class="cls-4" x="101.19" y="0">i</tspan><tspan class="cls-5" x="110.92" y="0">t</tspan><tspan class="cls-6" x="123.89" y="0">a</tspan><tspan class="cls-7" x="142.18" y="0">t</tspan><tspan class="cls-8" x="155.65" y="0">i</tspan><tspan class="cls-5" x="165.39" y="0">v</tspan><tspan x="182.33" y="0">e F</tspan><tspan class="cls-8" x="229.08" y="0">i</tspan><tspan x="238.82" y="0">n</tspan><tspan class="cls-9" x="259.7" y="0">a</tspan><tspan class="cls-10" x="278.33" y="0">n</tspan><tspan class="cls-11" x="299.21" y="0">c</tspan><tspan x="316.49" y="0">e</tspan><tspan x="0" y="40.42">&amp; </tspan><tspan class="cls-12" x="36.58" y="40.42">M</tspan><tspan class="cls-13" x="67.91" y="40.42">o</tspan><tspan class="cls-4" x="89.09" y="40.42">d</tspan><tspan class="cls-12" x="110.31" y="40.42">e</tspan><tspan class="cls-8" x="127.59" y="40.42">lin</tspan><tspan x="167.64" y="40.42">g </tspan><tspan class="cls-14" x="195.37" y="40.42">C</tspan><tspan class="cls-11" x="221.57" y="40.42">lu</tspan><tspan x="251.11" y="40.42">b</tspan></text><rect x="13.79" y="73.14" width="5.87" height="5.87"/><rect x="28.77" y="73.14" width="5.87" height="5.87"/><rect x="13.79" y="87.62" width="5.87" height="5.87"/><rect x="28.77" y="87.62" width="5.87" height="5.87"/><rect x="59.62" y="29.08" width="5.87" height="5.87"/><rect class="cls-15" x="59.32" y="43.77" width="5.87" height="5.87"/><rect x="44.34" y="58.45" width="5.87" height="5.87"/><rect x="59.32" y="58.45" width="5.87" height="5.87"/><rect class="cls-16" x="44.34" y="73.14" width="5.87" height="5.87"/><rect x="59.32" y="73.14" width="5.87" height="5.87"/><rect x="44.34" y="87.62" width="5.87" height="5.87"/><rect x="59.32" y="87.62" width="5.87" height="5.87"/><rect class="cls-17" x="89.72" width="5.87" height="5.87"/><rect x="74.89" y="14.69" width="5.87" height="5.87"/><rect x="89.72" y="14.69" width="5.87" height="5.87"/><rect x="74.89" y="29.37" width="5.87" height="5.87"/><rect x="89.72" y="29.37" width="5.87" height="5.87"/><rect x="74.6" y="44.06" width="5.87" height="5.87"/><rect class="cls-18" x="89.72" y="44.06" width="5.87" height="5.87"/><rect class="cls-19" x="74.6" y="58.75" width="5.87" height="5.87"/><rect x="89.72" y="58.75" width="5.87" height="5.87"/><rect x="74.6" y="73.43" width="5.87" height="5.87"/><rect x="89.72" y="73.43" width="5.87" height="5.87"/><rect class="cls-20" x="74.6" y="87.62" width="5.87" height="5.87"/><rect x="89.72" y="87.62" width="5.87" height="5.87"/><rect x="28.48" y="58.75" width="5.87" height="5.87"/><rect x="44.64" y="43.77" width="5.87" height="5.87"/><rect class="cls-21" y="87.78" width="5.87" height="5.87"/><rect class="cls-22" x="231.75" y="13.57" width="7.27" height="7.27"/><rect class="cls-23" x="232.82" y="16.83" width="3.86" height="3.86"/><rect class="cls-22" x="286.71" y="13.04" width="7.27" height="7.27"/><rect class="cls-23" x="287.78" y="16.3" width="3.86" height="3.86"/><rect class="cls-22" x="360.03" y="13.04" width="7.27" height="7.27"/><rect class="cls-23" x="361.1" y="16.3" width="3.86" height="3.86"/><rect class="cls-22" x="268.22" y="54.17" width="7.27" height="7.27"/><rect class="cls-23" x="269.29" y="57.44" width="3.86" height="3.86"/></svg>